<svg width="128" height="39" viewBox="0 0 128 39" fill="none" xmlns="http://www.w3.org/2000/svg">
<g clip-path="url(#clip0_165_8111)">
<path fill-rule="evenodd" clip-rule="evenodd" d="M123.258 38.5H4.74249C2.1287 38.5 0 36.3584 0 33.75V5.25C0 2.63217 2.1287 0.5 4.74249 0.5H123.258C125.869 0.5 128 2.63217 128 5.25V33.75C128 36.3584 125.869 38.5 123.258 38.5Z" fill="black"/>
<path fill-rule="evenodd" clip-rule="evenodd" d="M123.258 1.26047C125.45 1.26047 127.244 3.05387 127.244 5.25V33.75C127.244 35.9461 125.462 37.7395 123.258 37.7395H4.74249C2.5502 37.7395 0.755878 35.9461 0.755878 33.75V5.25C0.755878 3.05387 2.53843 1.26047 4.74249 1.26047H123.258ZM123.258 0.5H4.74249C2.1287 0.5 0 2.64165 0 5.25V33.75C0 36.3678 2.1287 38.5 4.74249 38.5H123.258C125.869 38.5 128 36.3678 128 33.75V5.25C128 2.64165 125.869 0.5 123.258 0.5Z" fill="white"/>
<path d="M67.4291 13.0698C66.5743 13.0698 65.8537 12.7689 65.2839 12.1766C64.7187 11.6009 64.4032 10.8073 64.4173 9.99708C64.4173 9.13237 64.7093 8.40032 65.2839 7.8199C65.8514 7.22763 66.5719 6.92676 67.4267 6.92676C68.272 6.92676 68.9926 7.22763 69.5719 7.8199C70.1464 8.41928 70.4384 9.15132 70.4384 9.99708C70.429 10.8642 70.137 11.5962 69.5719 12.1743C69.0044 12.7713 68.2838 13.0698 67.4291 13.0698ZM41.9955 13.0698C41.1595 13.0698 40.4343 12.7736 39.8409 12.1885C39.2522 11.6057 38.9531 10.8689 38.9531 9.99945C38.9531 9.13 39.2522 8.39322 39.8409 7.81042C40.4225 7.22526 41.1477 6.92913 41.9955 6.92913C42.4099 6.92913 42.8125 7.01204 43.1987 7.18025C43.5778 7.34372 43.8863 7.56641 44.1147 7.83885L44.1712 7.90756L43.5331 8.53773L43.4672 8.45955C43.1069 8.02838 42.6242 7.81753 41.986 7.81753C41.4162 7.81753 40.9193 8.02127 40.5096 8.42401C40.0975 8.82913 39.888 9.3598 39.888 10.0018C39.888 10.6438 40.0975 11.1745 40.5096 11.5796C40.9193 11.9824 41.4162 12.1861 41.986 12.1861C42.5936 12.1861 43.1045 11.9824 43.5025 11.5796C43.738 11.3427 43.884 11.011 43.9358 10.5917H41.8895V9.70569H44.8141L44.8259 9.78623C44.847 9.93549 44.8682 10.0895 44.8682 10.2316C44.8682 11.049 44.6233 11.7099 44.1383 12.198C43.5873 12.776 42.8667 13.0698 41.9955 13.0698ZM75.8119 12.9442H74.9101L72.148 8.49746L72.1715 9.2982V12.9418H71.2696V7.05469H72.2987L72.3269 7.0997L74.9242 11.2882L74.9007 10.4899V7.05469H75.8119V12.9442ZM60.6521 12.9442H59.7385V7.94072H58.1537V7.05469H62.2345V7.94072H60.6497V12.9442H60.6521ZM57.4096 12.9442H56.4983V7.05469H57.4096V12.9442ZM52.288 12.9442H51.3768V7.94072H49.792V7.05469H53.8728V7.94072H52.288V12.9442ZM49.2151 12.9347H45.7207V7.05469H49.2151V7.94072H46.6343V9.55643H48.9631V10.433H46.6343V12.0487H49.2151V12.9347ZM65.9526 11.5678C66.36 11.9776 66.8545 12.1837 67.4291 12.1837C68.0201 12.1837 68.5028 11.9824 68.9055 11.5678C69.3058 11.165 69.5083 10.6367 69.5083 9.99945C69.5083 9.36217 69.3058 8.8315 68.9078 8.43112C68.5005 8.02127 68.0036 7.81516 67.4314 7.81516C66.8404 7.81516 66.3576 8.01653 65.9573 8.43112C65.557 8.83387 65.3545 9.36217 65.3545 9.99945C65.3545 10.6367 65.5547 11.1674 65.9526 11.5678Z" fill="white"/>
<path fill-rule="evenodd" clip-rule="evenodd" d="M64.3359 21.1677C62.1107 21.1677 60.3069 22.8663 60.3069 25.2093C60.3069 27.531 62.1225 29.251 64.3359 29.251C66.5612 29.251 68.3649 27.5405 68.3649 25.2093C68.3649 22.8663 66.5612 21.1677 64.3359 21.1677ZM64.3359 27.6495C63.1185 27.6495 62.0707 26.6355 62.0707 25.1999C62.0707 23.7429 63.1209 22.7502 64.3359 22.7502C65.5534 22.7502 66.6012 23.7429 66.6012 25.1999C66.6036 26.645 65.5534 27.6495 64.3359 27.6495ZM55.5456 21.1677C53.3204 21.1677 51.5166 22.8663 51.5166 25.2093C51.5166 27.531 53.3321 29.251 55.5456 29.251C57.7709 29.251 59.5746 27.5405 59.5746 25.2093C59.5746 22.8663 57.7685 21.1677 55.5456 21.1677ZM55.5456 27.6495C54.3282 27.6495 53.2803 26.6355 53.2803 25.1999C53.2803 23.7429 54.3306 22.7502 55.5456 22.7502C56.763 22.7502 57.8109 23.7429 57.8109 25.1999C57.8109 26.645 56.763 27.6495 55.5456 27.6495ZM45.0858 22.402V24.1125H49.1666C49.0418 25.0719 48.7262 25.7803 48.2435 26.266C47.6454 26.8677 46.7223 27.5216 45.0952 27.5216C42.5874 27.5216 40.6258 25.4842 40.6258 22.9611C40.6258 20.438 42.5874 18.4006 45.0952 18.4006C46.4492 18.4006 47.4358 18.9384 48.1681 19.6254L49.3738 18.4125C48.3565 17.4317 47.0025 16.6807 45.1046 16.6807C41.6643 16.6807 38.7773 19.4999 38.7773 22.9516C38.7773 26.4128 41.6619 29.2226 45.1046 29.2226C46.9625 29.2226 48.3565 28.6113 49.4585 27.46C50.5818 26.3299 50.9373 24.7355 50.9373 23.4491C50.9373 23.0487 50.9067 22.6886 50.8431 22.383H45.0834C45.0858 22.3807 45.0858 22.402 45.0858 22.402ZM87.8694 23.7334C87.5327 22.8261 86.5154 21.1582 84.4291 21.1582C82.3616 21.1582 80.6427 22.7953 80.6427 25.1999C80.6427 27.4694 82.3428 29.2415 84.6293 29.2415C86.466 29.2415 87.5351 28.1115 87.9754 27.4481L86.612 26.5289C86.1599 27.2041 85.5312 27.6471 84.6387 27.6471C83.7368 27.6471 83.1057 27.2349 82.6866 26.4223L88.0578 24.1835C88.0578 24.1859 87.8694 23.7334 87.8694 23.7334ZM82.3923 25.0838C82.3499 23.5226 83.5979 22.7289 84.4903 22.7289C85.1944 22.7289 85.7808 23.0772 85.9809 23.5842L82.3923 25.0838ZM78.0289 28.9999H79.7926V17.1261H78.0289V28.9999ZM75.1325 22.0656H75.0689C74.671 21.5894 73.9151 21.1582 72.9497 21.1582C70.9458 21.1582 69.0996 22.9327 69.0996 25.2117C69.0996 27.4813 70.9363 29.2344 72.9497 29.2344C73.9033 29.2344 74.671 28.8009 75.0689 28.3152H75.1325V28.8956C75.1325 30.4379 74.3131 31.2694 72.992 31.2694C71.9112 31.2694 71.2401 30.4876 70.9669 29.8338L69.434 30.4782C69.8743 31.5443 71.0494 32.8638 72.9897 32.8638C75.0572 32.8638 76.8091 31.639 76.8091 28.6516V21.3999H75.1419V22.0656C75.1443 22.0656 75.1325 22.0656 75.1325 22.0656ZM73.1074 27.6495C71.89 27.6495 70.8728 26.626 70.8728 25.2117C70.8728 23.7855 71.89 22.7526 73.1074 22.7526C74.3131 22.7526 75.2479 23.7974 75.2479 25.2117C75.2597 26.626 74.3154 27.6495 73.1074 27.6495ZM96.1276 17.1261H91.9102V28.9999H93.6739V24.5034H96.1299C98.082 24.5034 100.001 23.0795 100.001 20.8194C100.001 18.5593 98.0891 17.1261 96.1276 17.1261ZM96.1794 22.845H93.6716V18.7702H96.1794C97.5004 18.7702 98.2469 19.8671 98.2469 20.8076C98.2469 21.7386 97.491 22.845 96.1794 22.845ZM107.07 21.1464C105.789 21.1464 104.468 21.7173 103.922 22.9611L105.485 23.615C105.822 22.9611 106.439 22.7384 107.091 22.7384C108.005 22.7384 108.928 23.288 108.949 24.2688V24.3944C108.634 24.2143 107.941 23.9395 107.113 23.9395C105.424 23.9395 103.712 24.8682 103.712 26.6095C103.712 28.2039 105.097 29.2273 106.639 29.2273C107.824 29.2273 108.476 28.6895 108.883 28.0664H108.947V28.9857H110.647V24.437C110.647 22.3191 109.083 21.1464 107.07 21.1464ZM106.849 27.6495C106.272 27.6495 105.464 27.3652 105.464 26.6355C105.464 25.7163 106.472 25.3681 107.332 25.3681C108.109 25.3681 108.476 25.5363 108.937 25.7684C108.81 26.8345 107.916 27.64 106.849 27.6495ZM116.849 21.3999L114.824 26.5502H114.761L112.663 21.3999H110.765L113.913 28.5995L112.119 32.6009H113.955L118.799 21.3999H116.849ZM100.974 28.9999H102.737V17.1261H100.974V28.9999Z" fill="white"/>
<path fill-rule="evenodd" clip-rule="evenodd" d="M9.8528 7.65674C9.57964 7.95287 9.42188 8.40537 9.42188 8.99764V30.0042C9.42188 30.5965 9.57964 31.049 9.86221 31.3333L9.93521 31.3973L21.6337 19.6277V19.3647L9.92579 7.59277L9.8528 7.65674Z" fill="url(#paint0_linear_165_8111)"/>
<path fill-rule="evenodd" clip-rule="evenodd" d="M25.5269 23.5625L21.625 19.6369V19.3621L25.5269 15.4365L25.6116 15.4886L30.227 18.1278C31.548 18.8764 31.548 20.1131 30.227 20.8712L25.6116 23.5103L25.5269 23.5625Z" fill="url(#paint1_linear_165_8111)"/>
<path fill-rule="evenodd" clip-rule="evenodd" d="M25.6096 23.5108L21.623 19.5L9.85156 31.343C10.2825 31.8074 11.0054 31.8595 11.8131 31.407L25.6096 23.5108Z" fill="url(#paint2_linear_165_8111)"/>
<path fill-rule="evenodd" clip-rule="evenodd" d="M25.6096 15.4893L11.8131 7.60503C11.0054 7.14069 10.2801 7.20465 9.85156 7.66899L21.623 19.5002L25.6096 15.4893Z" fill="url(#paint3_linear_165_8111)"/>
<path opacity="0.2" fill-rule="evenodd" clip-rule="evenodd" d="M25.5272 23.4258L11.8248 31.2579C11.0595 31.7009 10.3766 31.6701 9.93628 31.2674L9.86328 31.3408L9.93628 31.4048C10.3766 31.8052 11.0595 31.8383 11.8248 31.3953L25.6214 23.5111L25.5272 23.4258Z" fill="black"/>
<path opacity="0.12" fill-rule="evenodd" clip-rule="evenodd" d="M30.2275 20.7343L25.5156 23.4256L25.6004 23.5108L30.2157 20.8717C30.8774 20.4926 31.2024 19.9951 31.2024 19.5C31.1623 19.9549 30.8256 20.386 30.2275 20.7343Z" fill="black"/>
<path opacity="0.25" fill-rule="evenodd" clip-rule="evenodd" d="M11.8143 7.74267L30.2262 18.2661C30.8243 18.6049 31.161 19.0479 31.2128 19.5004C31.2128 19.0053 30.8879 18.5078 30.2262 18.1287L11.8143 7.60526C10.4933 6.84479 9.42188 7.4797 9.42188 8.99828V9.13568C9.42188 7.61474 10.4933 6.99167 11.8143 7.74267Z" fill="white"/>
</g>
<defs>
<linearGradient id="paint0_linear_165_8111" x1="20.5843" y1="8.771" x2="1.83046" y2="13.7378" gradientUnits="userSpaceOnUse">
<stop stop-color="#00A0FF"/>
<stop offset="0.00657" stop-color="#00A1FF"/>
<stop offset="0.2601" stop-color="#00BEFF"/>
<stop offset="0.5122" stop-color="#00D2FF"/>
<stop offset="0.7604" stop-color="#00DFFF"/>
<stop offset="1" stop-color="#00E3FF"/>
</linearGradient>
<linearGradient id="paint1_linear_165_8111" x1="31.9497" y1="19.4995" x2="9.1015" y2="19.4995" gradientUnits="userSpaceOnUse">
<stop stop-color="#FFE000"/>
<stop offset="0.4087" stop-color="#FFBD00"/>
<stop offset="0.7754" stop-color="#FFA500"/>
<stop offset="1" stop-color="#FF9C00"/>
</linearGradient>
<linearGradient id="paint2_linear_165_8111" x1="23.4419" y1="21.6825" x2="8.26318" y2="47.0751" gradientUnits="userSpaceOnUse">
<stop stop-color="#FF3A44"/>
<stop offset="1" stop-color="#C31162"/>
</linearGradient>
<linearGradient id="paint3_linear_165_8111" x1="6.88738" y1="0.670017" x2="13.6592" y2="12.0108" gradientUnits="userSpaceOnUse">
<stop stop-color="#32A071"/>
<stop offset="0.0685" stop-color="#2DA771"/>
<stop offset="0.4762" stop-color="#15CF74"/>
<stop offset="0.8009" stop-color="#06E775"/>
<stop offset="1" stop-color="#00F076"/>
</linearGradient>
<clipPath id="clip0_165_8111">
<rect width="128" height="38" fill="white" transform="translate(0 0.5)"/>
</clipPath>
</defs>
</svg>
