<svg width="128" height="40" viewBox="0 0 128 40" fill="none" xmlns="http://www.w3.org/2000/svg">
<g clip-path="url(#clip0_165_8112)">
<path d="M117.807 0.500127H10.1989C9.80663 0.500127 9.41909 0.500127 9.02789 0.502077C8.70041 0.504027 8.37554 0.509691 8.04492 0.514459C7.32666 0.522164 6.61008 0.579761 5.90143 0.686751C5.19377 0.796071 4.50827 1.00217 3.86813 1.29808C3.22877 1.59649 2.64457 1.98424 2.13672 2.44727C1.62621 2.909 1.20066 3.44269 0.876427 4.02783C0.551304 4.61181 0.325862 5.23759 0.207889 5.88357C0.0887936 6.52873 0.0247074 7.18133 0.0162054 7.83552C0.00627891 8.13445 0.00523064 8.43438 0 8.73336V31.2698C0.00523064 31.5725 0.00627891 31.8658 0.0162054 32.1686C0.02471 32.8228 0.0887962 33.4753 0.207889 34.1205C0.325536 34.7668 0.550991 35.393 0.876427 35.9772C1.20051 36.5604 1.62612 37.0919 2.13672 37.5511C2.64265 38.0162 3.22722 38.4042 3.86813 38.7003C4.50827 38.997 5.19369 39.2044 5.90143 39.3154C6.61021 39.4215 7.32671 39.4791 8.04492 39.4877C8.37554 39.4944 8.70041 39.4982 9.02789 39.4982C9.41908 39.5001 9.80665 39.5001 10.1989 39.5001H117.807C118.191 39.5001 118.582 39.5001 118.966 39.4982C119.292 39.4982 119.627 39.4944 119.953 39.4877C120.669 39.4796 121.385 39.422 122.092 39.3154C122.802 39.2036 123.49 38.9963 124.133 38.7003C124.773 38.404 125.357 38.016 125.863 37.5511C126.372 37.0901 126.799 36.559 127.127 35.9772C127.45 35.3925 127.673 34.7664 127.789 34.1205C127.908 33.4752 127.975 32.8228 127.987 32.1686C127.992 31.8658 127.992 31.5725 127.992 31.2698C128 30.9155 128 30.5633 128 30.2033V9.79785C128 9.4408 128 9.0866 127.992 8.73336C127.992 8.43438 127.992 8.13445 127.987 7.83548C127.975 7.18124 127.908 6.52878 127.789 5.88353C127.673 5.23793 127.449 4.61219 127.127 4.02779C126.466 2.85494 125.419 1.90025 124.133 1.29799C123.49 1.0028 122.802 0.796761 122.092 0.686664C121.385 0.579202 120.669 0.521584 119.953 0.514323C119.627 0.509565 119.292 0.503851 118.966 0.50195C118.582 0.5 118.191 0.5 117.807 0.5V0.500127Z" fill="white"/>
<path d="M9.03287 38.6473C8.70697 38.6473 8.38894 38.6435 8.06559 38.6368C7.39575 38.6289 6.72747 38.5757 6.06624 38.4778C5.44968 38.381 4.8524 38.201 4.29409 37.9436C3.74091 37.6884 3.23636 37.3537 2.79978 36.9524C2.35687 36.5559 1.98814 36.0959 1.70818 35.5908C1.42513 35.0825 1.22925 34.5375 1.12735 33.9751C1.01731 33.3707 0.957773 32.7595 0.949254 32.1469C0.942472 31.9413 0.933594 31.2567 0.933594 31.2567V8.73362C0.933594 8.73362 0.94305 8.0595 0.949307 7.86145C0.957464 7.24981 1.01666 6.63963 1.12637 6.03618C1.22846 5.47216 1.42449 4.92567 1.70769 4.41563C1.98662 3.91089 2.35331 3.4506 2.79354 3.05263C3.23328 2.65087 3.73944 2.31448 4.29357 2.05572C4.85059 1.79918 5.44675 1.6204 6.06206 1.52538C6.72546 1.42648 7.39606 1.37301 8.06822 1.36542L9.0334 1.35352H118.961L119.938 1.3659C120.604 1.37311 121.268 1.4261 121.925 1.52442C122.547 1.62064 123.149 1.80067 123.713 2.05858C124.823 2.58005 125.726 3.40507 126.296 4.41801C126.575 4.92453 126.768 5.46656 126.868 6.02571C126.98 6.63411 127.042 7.24909 127.054 7.86574C127.058 8.14186 127.058 8.43845 127.058 8.73362C127.066 9.09925 127.066 9.44725 127.066 9.79812V30.2036C127.066 30.5578 127.066 30.9034 127.058 31.2519C127.058 31.569 127.057 31.8594 127.053 32.1583C127.041 32.764 126.98 33.368 126.871 33.9655C126.771 34.532 126.576 35.0812 126.293 35.5938C126.011 36.0934 125.644 36.5493 125.207 36.9448C124.77 37.3483 124.264 37.6849 123.71 37.9418C123.148 38.2011 122.546 38.3818 121.925 38.4778C121.264 38.5762 120.596 38.6294 119.926 38.6368C119.613 38.6435 119.285 38.6473 118.966 38.6473L117.807 38.6492L9.03287 38.6473Z" fill="black"/>
<path d="M26.4961 20.2935C26.5076 19.4797 26.7447 18.6818 27.1855 17.974C27.6262 17.2662 28.2562 16.6715 29.0168 16.2452C28.5336 15.6162 27.8961 15.0985 27.155 14.7334C26.414 14.3682 25.5897 14.1655 24.7476 14.1415C22.9514 13.9697 21.21 15.1212 20.2947 15.1212C19.3617 15.1212 17.9524 14.1586 16.4348 14.187C15.4532 14.2159 14.4966 14.4761 13.6581 14.9422C12.8196 15.4083 12.1279 16.0645 11.6503 16.8467C9.58161 20.1114 11.1247 24.9094 13.1064 27.5484C14.0978 28.8406 15.2566 30.284 16.7728 30.2329C18.2564 30.1768 18.8106 29.3705 20.6015 29.3705C22.3758 29.3705 22.8957 30.2328 24.4427 30.2003C26.0347 30.1767 27.0378 28.9023 27.9945 27.5979C28.7069 26.6771 29.255 25.6595 29.6187 24.5827C28.6937 24.2261 27.9044 23.6292 27.3491 22.8665C26.7938 22.1038 26.4972 21.2089 26.4961 20.2935Z" fill="white"/>
<path d="M23.5743 12.4063C24.4423 11.4564 24.87 10.2356 24.7664 9.00293C23.4402 9.12989 22.2152 9.70764 21.3354 10.621C20.9053 11.0673 20.5758 11.5864 20.3659 12.1487C20.156 12.7111 20.0697 13.3056 20.112 13.8984C20.7754 13.9046 21.4316 13.7736 22.0313 13.5151C22.631 13.2567 23.1586 12.8775 23.5743 12.4063Z" fill="white"/>
<path d="M45.2517 26.962H40.1886L38.9727 30.2345H36.8281L41.6238 18.127H43.8519L48.6477 30.2345H46.4666L45.2517 26.962ZM40.713 25.4519H44.7263L42.7479 20.1408H42.6925L40.713 25.4519Z" fill="white"/>
<path d="M59.0053 25.8207C59.0053 28.5638 57.3945 30.3262 54.9637 30.3262C54.348 30.3556 53.7356 30.2263 53.1967 29.9532C52.6578 29.68 52.2142 29.2741 51.9167 28.7818H51.8707V33.1541H49.8828V21.4065H51.807V22.8747H51.8435C52.1548 22.3848 52.6059 21.981 53.1489 21.7062C53.6919 21.4314 54.3064 21.2959 54.9272 21.3141C57.3851 21.3141 59.0053 23.0851 59.0053 25.8207ZM56.962 25.8207C56.962 24.0335 55.9488 22.8585 54.4028 22.8585C52.8839 22.8585 51.8623 24.0582 51.8623 25.8207C51.8623 27.5993 52.8839 28.7904 54.4028 28.7904C55.9488 28.7904 56.962 27.624 56.962 25.8207Z" fill="white"/>
<path d="M69.6654 25.8206C69.6654 28.5638 68.0547 30.3262 65.6239 30.3262C65.0081 30.3556 64.3958 30.2263 63.8569 29.9531C63.318 29.68 62.8744 29.2741 62.5768 28.7818H62.5308V33.1541H60.543V21.4065H62.4671V22.8747H62.5037C62.8149 22.3848 63.266 21.981 63.809 21.7062C64.352 21.4314 64.9665 21.2959 65.5873 21.3141C68.0453 21.3141 69.6654 23.0851 69.6654 25.8206ZM67.6222 25.8206C67.6222 24.0335 66.6089 22.8585 65.0629 22.8585C63.5441 22.8585 62.5225 24.0582 62.5225 25.8206C62.5225 27.5993 63.5441 28.7904 65.0629 28.7904C66.6089 28.7904 67.6222 27.624 67.6222 25.8206H67.6222Z" fill="white"/>
<path d="M76.7068 26.8608C76.8541 28.0614 78.1337 28.8498 79.8823 28.8498C81.5579 28.8498 82.7633 28.0614 82.7633 26.9788C82.7633 26.039 82.0363 25.4763 80.3148 25.0907L78.5933 24.7127C76.1542 24.1757 75.0218 23.1359 75.0218 21.4487C75.0218 19.3597 77.0191 17.9248 79.8552 17.9248C82.662 17.9248 84.5861 19.3597 84.6509 21.4487H82.6442C82.5241 20.2404 81.4283 19.5111 79.8269 19.5111C78.2256 19.5111 77.1298 20.249 77.1298 21.323C77.1298 22.179 77.8297 22.6827 79.5418 23.0683L81.0052 23.3958C83.7306 23.9833 84.8629 24.9812 84.8629 26.7521C84.8629 29.0173 82.8834 30.436 79.735 30.436C76.7893 30.436 74.8004 29.0506 74.6719 26.8607L76.7068 26.8608Z" fill="white"/>
<path d="M89.1554 19.3174V21.4064H90.997V22.8413H89.1554V27.7077C89.1554 28.4637 89.5241 28.816 90.3337 28.816C90.5523 28.8125 90.7706 28.7985 90.9876 28.7741V30.2004C90.6236 30.2624 90.2536 30.2905 89.8834 30.2842C87.9227 30.2842 87.1581 29.6129 87.1581 27.901V22.8413H85.75V21.4064H87.1581V19.3174H89.1554Z" fill="white"/>
<path d="M92.0625 25.8206C92.0625 23.0431 93.8571 21.2979 96.6556 21.2979C99.4634 21.2979 101.25 23.0431 101.25 25.8206C101.25 28.6056 99.4728 30.3433 96.6556 30.3433C93.8393 30.3433 92.0625 28.6056 92.0625 25.8206ZM99.2242 25.8206C99.2242 23.9153 98.2663 22.7908 96.6556 22.7908C95.0448 22.7908 94.088 23.9239 94.088 25.8206C94.088 27.7334 95.0448 28.8493 96.6556 28.8493C98.2663 28.8493 99.2242 27.7334 99.2242 25.8206H99.2242Z" fill="white"/>
<path d="M102.891 21.4064H104.787V22.9089H104.833C104.961 22.4396 105.262 22.0249 105.687 21.7345C106.111 21.4441 106.632 21.2956 107.162 21.314C107.391 21.3133 107.62 21.336 107.843 21.3816V23.0765C107.554 22.9959 107.252 22.9589 106.95 22.967C106.661 22.9563 106.373 23.0027 106.106 23.103C105.839 23.2033 105.598 23.3552 105.402 23.5481C105.205 23.7411 105.056 23.9705 104.966 24.2208C104.876 24.471 104.846 24.7361 104.878 24.9979V30.2338H102.891L102.891 21.4064Z" fill="white"/>
<path d="M117.005 27.6411C116.738 29.2435 115.026 30.3433 112.835 30.3433C110.018 30.3433 108.27 28.6227 108.27 25.8624C108.27 23.0936 110.028 21.2979 112.752 21.2979C115.431 21.2979 117.116 22.9755 117.116 25.652V26.2728H110.276V26.3823C110.245 26.7072 110.289 27.0345 110.407 27.3424C110.525 27.6504 110.713 27.9319 110.96 28.1684C111.206 28.4049 111.505 28.5909 111.836 28.714C112.168 28.8372 112.524 28.8947 112.881 28.8827C113.351 28.9228 113.823 28.8236 114.226 28.5999C114.628 28.3762 114.941 28.0399 115.118 27.6411L117.005 27.6411ZM110.286 25.0065H115.127C115.145 24.7144 115.097 24.422 114.985 24.1479C114.873 23.8737 114.7 23.6236 114.477 23.4132C114.254 23.2028 113.985 23.0367 113.688 22.9254C113.392 22.814 113.073 22.7598 112.752 22.7661C112.428 22.7643 112.107 22.821 111.808 22.9329C111.508 23.0447 111.236 23.2096 111.007 23.4179C110.777 23.6262 110.596 23.8738 110.472 24.1464C110.348 24.4191 110.285 24.7114 110.286 25.0065V25.0065Z" fill="white"/>
<path d="M40.4617 9.01344C40.8784 8.98618 41.2966 9.04357 41.6861 9.18146C42.0756 9.31936 42.4266 9.53433 42.7139 9.81086C43.0012 10.0874 43.2176 10.4186 43.3474 10.7806C43.4773 11.1426 43.5174 11.5263 43.4649 11.9042C43.4649 13.7628 42.3628 14.8311 40.4617 14.8311H38.1562V9.01344H40.4617ZM39.1476 14.0084H40.3509C40.6487 14.0246 40.9467 13.9801 41.2233 13.8781C41.4998 13.7761 41.748 13.6192 41.9496 13.4187C42.1512 13.2183 42.3013 12.9794 42.3888 12.7195C42.4764 12.4595 42.4993 12.185 42.4558 11.916C42.4961 11.6481 42.4709 11.3753 42.382 11.1172C42.2931 10.8592 42.1427 10.6222 41.9415 10.4234C41.7403 10.2246 41.4934 10.0688 41.2184 9.96714C40.9434 9.86551 40.6472 9.82058 40.3509 9.83557H39.1476V14.0084Z" fill="white"/>
<path d="M44.585 12.6334C44.5547 12.3449 44.5909 12.0538 44.6913 11.7788C44.7916 11.5038 44.954 11.2509 45.1678 11.0364C45.3817 10.822 45.6424 10.6506 45.9332 10.5333C46.224 10.416 46.5384 10.3555 46.8564 10.3555C47.1744 10.3555 47.4889 10.416 47.7797 10.5333C48.0704 10.6506 48.3311 10.822 48.545 11.0364C48.7589 11.2509 48.9212 11.5038 49.0216 11.7788C49.122 12.0538 49.1582 12.3449 49.1279 12.6334C49.1587 12.9223 49.123 13.2138 49.0229 13.4892C48.9227 13.7647 48.7605 14.018 48.5466 14.2329C48.3327 14.4478 48.0718 14.6195 47.7807 14.7371C47.4896 14.8546 47.1748 14.9153 46.8564 14.9153C46.5381 14.9153 46.2232 14.8546 45.9322 14.7371C45.6411 14.6195 45.3802 14.4478 45.1663 14.2329C44.9523 14.018 44.7901 13.7647 44.69 13.4892C44.5899 13.2138 44.5541 12.9223 44.585 12.6334ZM48.1501 12.6334C48.1501 11.6818 47.6811 11.1252 46.858 11.1252C46.0317 11.1252 45.5669 11.6818 45.5669 12.6334C45.5669 13.5927 46.0318 14.145 46.858 14.145C47.6811 14.145 48.1502 13.5889 48.1502 12.6334H48.1501Z" fill="white"/>
<path d="M55.165 14.8308H54.1789L53.1834 11.5973H53.1082L52.1169 14.8308H51.1402L49.8125 10.4404H50.7767L51.6395 13.7905H51.7105L52.7008 10.4404H53.6127L54.603 13.7905H54.6782L55.5369 10.4404H56.4874L55.165 14.8308Z" fill="white"/>
<path d="M57.6055 10.4406H58.5205V11.1381H58.5916C58.7121 10.8876 58.9153 10.6776 59.173 10.5374C59.4306 10.3972 59.7298 10.3337 60.0289 10.3559C60.2633 10.3398 60.4986 10.372 60.7175 10.4501C60.9363 10.5282 61.1331 10.6502 61.2932 10.807C61.4533 10.9638 61.5726 11.1515 61.6424 11.3561C61.7121 11.5606 61.7305 11.7769 61.6961 11.9888V14.8309H60.7455V12.2064C60.7455 11.5009 60.4092 11.15 59.7061 11.15C59.547 11.1432 59.3882 11.1679 59.2405 11.2223C59.0928 11.2768 58.9598 11.3597 58.8506 11.4654C58.7413 11.571 58.6585 11.697 58.6076 11.8346C58.5568 11.9722 58.5392 12.1182 58.556 12.2626V14.831H57.6055L57.6055 10.4406Z" fill="white"/>
<path d="M63.2109 8.72656H64.1615V14.8308H63.2109V8.72656Z" fill="white"/>
<path d="M65.4834 12.6335C65.4531 12.345 65.4893 12.0539 65.5898 11.7788C65.6902 11.5038 65.8525 11.2509 66.0664 11.0364C66.2803 10.822 66.541 10.6506 66.8318 10.5333C67.1226 10.416 67.4371 10.3555 67.7551 10.3555C68.0731 10.3555 68.3876 10.416 68.6784 10.5333C68.9692 10.6506 69.2299 10.822 69.4438 11.0364C69.6577 11.2509 69.82 11.5038 69.9204 11.7788C70.0208 12.0539 70.0571 12.345 70.0268 12.6335C70.0576 12.9223 70.0218 13.2139 69.9217 13.4893C69.8215 13.7648 69.6593 14.0181 69.4453 14.233C69.2314 14.4479 68.9705 14.6196 68.6794 14.7371C68.3883 14.8546 68.0735 14.9154 67.7551 14.9154C67.4367 14.9154 67.1219 14.8546 66.8308 14.7371C66.5397 14.6196 66.2788 14.4479 66.0649 14.233C65.8509 14.0181 65.6887 13.7648 65.5885 13.4893C65.4884 13.2139 65.4526 12.9223 65.4834 12.6335ZM69.0486 12.6335C69.0486 11.6819 68.5795 11.1253 67.7564 11.1253C66.9301 11.1253 66.4653 11.6819 66.4653 12.6335C66.4653 13.5928 66.9302 14.1451 67.7564 14.1451C68.5795 14.1451 69.0486 13.589 69.0486 12.6335H69.0486Z" fill="white"/>
<path d="M71.0273 13.589C71.0273 12.7987 71.6729 12.3431 72.8188 12.2783L74.1235 12.2098V11.8308C74.1235 11.3671 73.7872 11.1053 73.1374 11.1053C72.6068 11.1053 72.2391 11.2829 72.1336 11.5933H71.2133C71.3104 10.8392 72.0887 10.3555 73.1813 10.3555C74.3888 10.3555 75.0699 10.9034 75.0699 11.8308V14.8306H74.1549V14.2136H74.0796C73.927 14.4349 73.7126 14.6153 73.4584 14.7364C73.2043 14.8575 72.9194 14.915 72.6329 14.9029C72.4307 14.9221 72.2263 14.9024 72.033 14.8452C71.8396 14.7879 71.6616 14.6944 71.5103 14.5706C71.359 14.4468 71.2379 14.2955 71.1547 14.1264C71.0715 13.9574 71.0281 13.7743 71.0273 13.589ZM74.1235 13.2138V12.8468L72.9473 12.9153C72.284 12.9558 71.9831 13.1614 71.9831 13.5485C71.9831 13.9436 72.3592 14.1736 72.8763 14.1736C73.0278 14.1875 73.1809 14.1736 73.3263 14.1326C73.4718 14.0915 73.6068 14.0242 73.7231 13.9347C73.8395 13.8451 73.9349 13.7352 74.0037 13.6113C74.0725 13.4875 74.1132 13.3523 74.1235 13.2138Z" fill="white"/>
<path d="M76.3203 12.6337C76.3203 11.2464 77.1027 10.3676 78.3197 10.3676C78.6207 10.355 78.9194 10.4207 79.181 10.5571C79.4425 10.6935 79.6561 10.8949 79.7967 11.1379H79.8678V8.72656H80.8183V14.8308H79.9074V14.1371H79.8322C79.6808 14.3784 79.4598 14.5774 79.1931 14.7124C78.9265 14.8474 78.6245 14.9134 78.3197 14.9031C77.0944 14.9032 76.3203 14.0243 76.3203 12.6337ZM77.3023 12.6337C77.3023 13.5649 77.7838 14.1253 78.5892 14.1253C79.3904 14.1253 79.8855 13.5568 79.8855 12.6375C79.8855 11.7225 79.3852 11.146 78.5892 11.146C77.789 11.146 77.3022 11.7101 77.3022 12.6337H77.3023Z" fill="white"/>
<path d="M84.749 12.6334C84.7187 12.3449 84.755 12.0538 84.8553 11.7788C84.9557 11.5038 85.118 11.2509 85.3319 11.0364C85.5458 10.822 85.8065 10.6506 86.0973 10.5333C86.388 10.416 86.7025 10.3555 87.0205 10.3555C87.3385 10.3555 87.6529 10.416 87.9437 10.5333C88.2345 10.6506 88.4952 10.822 88.7091 11.0364C88.9229 11.2509 89.0853 11.5038 89.1856 11.7788C89.286 12.0538 89.3222 12.3449 89.292 12.6334C89.3228 12.9223 89.287 13.2138 89.1869 13.4892C89.0868 13.7647 88.9246 14.018 88.7106 14.2329C88.4967 14.4478 88.2358 14.6195 87.9448 14.7371C87.6537 14.8546 87.3388 14.9153 87.0205 14.9153C86.7021 14.9153 86.3873 14.8546 86.0962 14.7371C85.8051 14.6195 85.5442 14.4478 85.3303 14.2329C85.1164 14.018 84.9542 13.7647 84.8541 13.4892C84.7539 13.2138 84.7182 12.9223 84.749 12.6334ZM88.3142 12.6334C88.3142 11.6818 87.8452 11.1252 87.0221 11.1252C86.1958 11.1252 85.731 11.6818 85.731 12.6334C85.731 13.5927 86.1958 14.145 87.0221 14.145C87.8452 14.145 88.3142 13.5889 88.3142 12.6334Z" fill="white"/>
<path d="M90.5664 10.4406H91.4815V11.1381H91.5525C91.673 10.8876 91.8762 10.6776 92.1339 10.5374C92.3915 10.3972 92.6908 10.3337 92.9899 10.3559C93.2242 10.3398 93.4595 10.372 93.6784 10.4501C93.8972 10.5282 94.094 10.6502 94.2541 10.807C94.4142 10.9638 94.5336 11.1515 94.6033 11.3561C94.6731 11.5606 94.6914 11.7769 94.657 11.9888V14.8309H93.7065V12.2064C93.7065 11.5009 93.3701 11.15 92.6671 11.15C92.508 11.1432 92.3491 11.1679 92.2014 11.2223C92.0538 11.2768 91.9208 11.3597 91.8115 11.4654C91.7023 11.571 91.6194 11.697 91.5686 11.8346C91.5177 11.9722 91.5001 12.1182 91.517 12.2626V14.831H90.5664V10.4406Z" fill="white"/>
<path d="M100.029 9.34766V10.4607H101.072V11.1905H100.029V13.4481C100.029 13.908 100.237 14.1094 100.71 14.1094C100.831 14.109 100.952 14.1023 101.072 14.0894V14.8111C100.902 14.8389 100.729 14.8537 100.555 14.8554C99.4981 14.8554 99.0771 14.5164 99.0771 13.6699V11.1905H98.3125V10.4607H99.0771V9.34766H100.029Z" fill="white"/>
<path d="M102.371 8.72656H103.313V11.146H103.389C103.515 10.8931 103.724 10.682 103.987 10.5412C104.249 10.4005 104.553 10.337 104.857 10.3595C105.09 10.3479 105.323 10.3834 105.54 10.4634C105.756 10.5434 105.95 10.6659 106.109 10.8223C106.267 10.9786 106.386 11.1649 106.456 11.3678C106.527 11.5707 106.547 11.7853 106.516 11.9962V14.8308H105.564V12.21C105.564 11.5087 105.206 11.1536 104.534 11.1536C104.371 11.1414 104.207 11.1618 104.053 11.2136C103.899 11.2653 103.76 11.347 103.644 11.453C103.529 11.5591 103.44 11.6868 103.384 11.8273C103.329 11.9679 103.307 12.1178 103.322 12.2666V14.8308H102.371L102.371 8.72656Z" fill="white"/>
<path d="M112.059 13.6452C111.93 14.0465 111.65 14.3935 111.269 14.6257C110.887 14.8579 110.428 14.9605 109.972 14.9154C109.655 14.923 109.339 14.8676 109.048 14.753C108.756 14.6384 108.496 14.4674 108.284 14.2518C108.072 14.0362 107.915 13.7812 107.822 13.5044C107.729 13.2277 107.704 12.9359 107.747 12.6493C107.705 12.3618 107.731 12.0693 107.823 11.7918C107.916 11.5142 108.073 11.258 108.283 11.0405C108.494 10.823 108.753 10.6493 109.044 10.5311C109.335 10.4129 109.65 10.3531 109.968 10.3555C111.308 10.3555 112.117 11.1901 112.117 12.5688V12.8711H108.715V12.9197C108.701 13.0808 108.723 13.243 108.781 13.3958C108.839 13.5486 108.931 13.6888 109.052 13.8072C109.172 13.9256 109.319 14.0197 109.482 14.0835C109.645 14.1472 109.821 14.1792 109.998 14.1774C110.226 14.2023 110.456 14.165 110.66 14.0702C110.864 13.9754 111.033 13.8275 111.144 13.6452L112.059 13.6452ZM108.715 12.2303H111.148C111.16 12.083 111.138 11.935 111.084 11.7958C111.029 11.6567 110.943 11.5294 110.832 11.4223C110.72 11.3152 110.585 11.2306 110.435 11.1739C110.286 11.1171 110.125 11.0896 109.963 11.093C109.798 11.0911 109.635 11.1192 109.483 11.1757C109.331 11.2322 109.192 11.3159 109.076 11.4219C108.96 11.5279 108.868 11.6541 108.806 11.7929C108.744 11.9317 108.713 12.0805 108.715 12.2303H108.715Z" fill="white"/>
</g>
<defs>
<clipPath id="clip0_165_8112">
<rect width="128" height="39" fill="white" transform="translate(0 0.5)"/>
</clipPath>
</defs>
</svg>
